<svg width="1535" height="480" xmlns="http://www.w3.org/2000/svg"><g fill="none" fill-rule="evenodd"><path d="M282.64 79.85c34 1.2 57.6 9.17 57.64 9.19 0 0-36.46-38.5-102.85-22a52.55 52.55 0 00-33.86 2c-72.33 3.7-98 45.47-98.06 45.54.05 0 24.32-15.42 61.51-24.67-41.59 18.58-49.15 49.88-49.15 49.88S148 113.17 196.5 97.57c-34.65 29-14 94.57-14 94.57s6.86-54 36.87-85.77c.54 2.83 1.16 6 1.84 9.56.79 4.92 1.7 10.47 2.68 16.53.47 3 1 6.16 1.48 9.45.48 3.29.9 6.67 1.38 10.16.48 3.49.95 7.07 1.45 10.73s.84 7.43 1.27 11.25c.43 3.82.86 7.69 1.3 11.62.44 3.93.73 7.93 1.1 11.95.37 4.02.73 8.07 1.09 12.13l.87 12.27c.65 8.17 1 16.37 1.48 24.43.24 4 .39 8 .53 12s.3 7.86.45 11.7c.15 3.84.18 7.63.27 11.33.09 3.7.19 7.31.2 10.84.01 3.53.08 6.94.11 10.26.03 3.32 0 6.51 0 9.58 0 6.14-.09 11.77-.15 16.75s-.19 9.31-.3 12.87c-.06 1.77-.11 3.36-.16 4.74-.05 1.38-.1 2.5-.14 3.43l-.13 2.92 21.14.71v-6.71c0-1.46-.13-3.12-.13-4.94-.07-3.69-.2-8.14-.36-13.25-.16-5.11-.39-10.85-.72-17.12-.17-3.13-.3-6.39-.51-9.76-.21-3.37-.42-6.86-.64-10.44-.22-3.58-.49-7.26-.77-11s-.57-7.59-.86-11.49c-.29-3.9-.7-7.85-1.06-11.86-.36-4.01-.71-8.06-1.16-12.14-.86-8.15-1.69-16.44-2.76-24.7l-1.52-12.37a333.222 333.222 0 00-1.73-12.23c-.58-4.05-1.12-8.08-1.73-12l-1.92-11.71c-.64-3.83-1.22-7.61-1.87-11.3-.65-3.69-1.37-7.27-2-10.77-.63-3.5-1.29-6.91-1.91-10.2-.62-3.29-1.36-6.44-2-9.47-1.31-6.07-2.51-11.62-3.57-16.55-.92-3.73-1.75-7.09-2.47-10 34 13.85 62.77 69.19 62.77 69.19s-3.24-62.3-43.81-81.19c49.77 4.82 84.19 36.23 84.19 36.23s-12.14-34.23-47.9-47.85l-.05-.1zm1068.11-48.82c42.86 10.66 70.82 28.41 70.82 28.41S1392 11.26 1308.66 7a60.43 60.43 0 00-39-2.25c-76.49-19-118.42 25.31-118.42 25.31s27.13-9.2 66.36-10.58c-41.15 15.68-55.14 55.06-55.15 55.1 0 0 39.64-36.12 96.88-41.69-46.65 21.79-50.38 93.45-50.38 93.45s30.18-58.16 67.06-77.26l-4.28 14.18c-1.85 7-4 14.94-6.23 23.58-1.1 4.32-2.41 8.81-3.47 13.5l-3.35 14.52a7353.921 7353.921 0 00-3.53 15.36c-1.14 5.25-2.16 10.63-3.27 16.1l-3.35 16.67c-1.07 5.65-2 11.38-3 17.15-1 5.77-2 11.59-3 17.43s-1.76 11.75-2.65 17.63c-1.87 11.76-3.3 23.57-4.81 35.19-.79 5.81-1.42 11.59-2 17.3-.58 5.71-1.24 11.34-1.85 16.89-.61 5.55-1 11-1.51 16.37-.51 5.37-1 10.59-1.34 15.69-.34 5.1-.76 10.07-1.12 14.87-.36 4.8-.59 9.46-.88 13.92-.58 8.92-.91 17.13-1.25 24.39-.34 7.26-.51 13.63-.64 18.88-.05 2.62-.1 5-.15 7-.05 2 0 3.85-.06 5.28v4.32l36.91-1-.24-4.14c-.06-1.33-.14-3-.24-4.9-.1-1.9-.17-4.23-.27-6.76-.2-5.06-.37-11.24-.53-18.33-.16-7.09-.29-15.11-.26-23.86v-13.66c0-4.72.12-9.6.19-14.62s.2-10.17.35-15.44c.15-5.27.32-10.66.48-16.14.16-5.48.52-11 .78-16.67.26-5.67.51-11.34.94-17.08.76-11.49 1.44-23.18 2.56-34.82.51-5.83 1-11.67 1.53-17.47.53-5.8 1.27-11.57 1.9-17.3.63-5.73 1.21-11.42 1.93-17s1.52-11.13 2.26-16.56c.74-5.43 1.43-10.81 2.23-16 .8-5.19 1.71-10.32 2.53-15.28.82-4.96 1.62-9.81 2.4-14.49.78-4.68 1.77-9.14 2.59-13.46 1.71-8.63 3.29-16.54 4.68-23.56 1.47-6.23 2.77-11.74 3.87-16.42 34.31 36.63 42.18 98.44 42.19 98.49 0-.06 23.72-75.55-16.15-108.89 55.78 18 90.55 48.57 90.55 48.57s-8.7-36-56.59-57.43l-.11-.05z" fill="#068FCC" fill-rule="nonzero" opacity=".61"/><g transform="translate(-1 204)"><path d="M98.19 216.52C73 212.3 40.46 206.8 20 203.34a2.802 2.802 0 01-2.32-2.84 2.802 2.802 0 012.48-2.7l237.78-26.56 78.67 17.83-166.31 27.51a219.79 219.79 0 01-72.11-.06z" fill="#086C9E" fill-rule="nonzero" opacity=".34"/><rect fill="#086C9E" fill-rule="nonzero" opacity=".34" x="584.77" y="251.75" width="350.91" height="24.15" rx="9.95"/><path d="M469.26 242.7l-196.82-3.92a1.94 1.94 0 01-.23-3.86l193.36-23.24 133.59-3.6-98.92 30.3a99.09 99.09 0 01-30.98 4.32zm578.31 4.89l184.33-18.66a2.76 2.76 0 00.45-5.41l-212.44-57.11-163 7.54 174.69 72.62c5.54 2.29 9.95 1.68 15.97 1.02zm442.28-43.92l-175-38.57a3 3 0 00-.78-.07l-146.8 7.25a3 3 0 00-.6 5.8l179.9 46.64a129.36 129.36 0 0047.39 3.27l95.22-11.06c7.53-.9 8.07-11.63.67-13.26z" fill="#086C9E" fill-rule="nonzero" opacity=".34"/><path d="M52.48 158.44c0 19.53 5.81 31.26 14.67 36.51 3.76 2.23 7.26 4.26 12.71 3.29 4.22-.74 8-1.45 12.12-4.3 8.58-6 15.46-18.16 15.46-35.83 0-26.5-11.63-41-27.58-41-15.6.04-27.38 18.9-27.38 41.33z" fill="#313F82" fill-rule="nonzero"/><path d="M34.51 156.69c0 19.27 5.8 30.85 14.66 36 3.76 2.2 7.26 4.2 12.72 3.25 4.21-.74 8.73-1.44 12.79-4.25 8.58-5.91 15.46-17.92 15.46-35.36 0-26.15-12.59-39.85-28.53-39.85-15.61.03-27.1 18.08-27.1 40.21z" fill="#313F82" fill-rule="nonzero"/><path fill="#313F82" fill-rule="nonzero" d="M57.23 196.09l19.65 2.4-.21-2.99-19.53-6.79z"/><path d="M1392.73 191.25s-84-2-113.08-11.24-25.79-75.39-25.79-75.39l70.1-11.24 47.61 14.55 23.15 56.21-1.99 27.11z" fill="#09516D" fill-rule="nonzero"/><path d="M1518.19 152.23c1.56 25.59-12.5 47.26-31.39 48.41-18.89 1.15-32.12 6.12-33.67-19.47-1.19-19.58-9.72-54.7 1.61-69.08 3.49-4.42 22-3.85 26.43-4.12 18.89-1.15 35.47 18.66 37.02 44.26z" fill="#28316B" fill-rule="nonzero"/><path d="M1501.44 153.11c1.55 25.59-12.5 47.26-31.39 48.41-18.89 1.15-34.58-18.66-36.14-44.25-1.56-25.59 11.61-47.27 30.51-48.42 18.9-1.15 35.46 18.66 37.02 44.26zm-122.34 15.57c1.56 25.59-12.5 47.26-31.39 48.41-18.89 1.15-32.12 6.12-33.68-19.47-1.19-19.58-9.71-54.7 1.62-69.08 3.49-4.42 22-3.85 26.43-4.12 18.92-1.15 35.46 18.66 37.02 44.26z" fill="#28316B" fill-rule="nonzero"/><path d="M1376 194.93s29.62 4.55 72.24-.74c42.62-5.29 65.4-8.46 81.78-18.74 11.25-7.05 2.35-9.62 2.35-9.62s2.36-19.9 2.06-34c-.22-10.36.44-20.06-12.56-21.6-1.1-.13-3.31-14.62-5.07-16.09-1.76-1.47-2.94-7.06-6.18-9.12-3.24-2.06-6.41-10.1-45.85-15.57-10.58-1.47-38.51-3.53-38.51-3.53s-52-34.69-77.3-45.56c-25.3-10.87-49.68-9.26-96.71-9.55-47.03-.29-121.1 9.26-121.1 9.26s-9.7 2.93-7.64 4.4c2.06 1.47 5.59 3.53-.29 7.35s-15 11.47-17.64 19.4c-2.64 7.93 58.49 97 58.49 97l127.57 35.27s-4.11-25.86-1.76-43.21c2.35-17.35 16.55-28.83 37.92-26.16 14.1 1.77 40.18 21.09 40.56 54.38.27 25.81 7.64 26.43 7.64 26.43z" fill="#238CC1" fill-rule="nonzero"/><path d="M1282 67.26c-1-1.33-16.76-18.52-27-29.4-12-12.74-11.46-14.11-25.28-14.7-13.82-.59-34-2.85-83.77 5-5.58.88-9.84 9.26-13.22 12.64-4.12 4.12-2.65 5.29 2 10s7.06 10.59 22.64 11.17c15.58.58 119.33 7.35 122.27 7.65 2.94.3 5 1.16 2.36-2.36z" fill="#9ACAD8" fill-rule="nonzero"/><path d="M1203.81 20.52a155 155 0 00-5.51 23.15c-2.21 13-2 29.1-2 29.1l17.2-1.55s1.2-20.9 4-51.36c.64-7.28-13.69.66-13.69.66zm-52.03 43.65a25.17 25.17 0 01.66-13.23c2.21-6.61 9.48-24 12.35-28.22 2.87-4.22-7.5 1.11-8.38 1.55-.88.44-18.3 25.35-17.86 34.83.44 9.48 13 7.71 13 7.71l.23-2.64z" fill="#238CC1" fill-rule="nonzero"/><path d="M1259.07 22.28l44.38 42.33s72.6-.59 92.3 0c19.7.59 23.81 2.35 19.1-.88-4.71-3.23-14.69-10.29-39.09-24.1-24.4-13.81-27.41-16.88-34.1-17.93-5.58-.89-76.13-7.06-82.59.58z" fill="#9ACAD8" fill-rule="nonzero"/><path d="M1455.53 101.29c1.2.39 15.09 10.69 15.7 12.24.61 1.55-23.71-.38-23.71-.38l-12.09-12.39 20.1.53zm4.47 74.64c-1.28 0 13.67-16.54 16.32-18.74 2-1.65 15.43-1.32 28.21-3.09 15.26-2.1 25.36-5.51 26.24-5.95.88-.44 1 13.75-1.1 15-6.87 3.97-24.95 11.24-69.67 12.78z" fill="#096C9E" fill-rule="nonzero"/><path d="M1370 94.37c1.27 1.66 3.31 15.65 26.45 20.5s32.41 4.85 41 6.4c8.59 1.55 12.12 2.64 15-2 2.88-4.64.44-6.17-6.17-12.12-6.61-5.95-6.18-10.14-15.44-10.14s-47.83-3.09-52.46-3.75c-4.63-.66-10.56-1.76-8.38 1.11z" fill="#88C1D8" fill-rule="nonzero"/><path d="M1476.51 98.41c10.91 4.68 16.31 20.68 21.38 20 2.43-.33 5-.5 7.22-.94 3.78-.75-3.16-16 1.6-21.33 0 0-3.53 1.62-12.64 2.21-8.15.51-19.87-.93-17.56.06z" fill="#096C9E" fill-rule="nonzero"/><path d="M1459.78 97.1l1-.07 1.31-.06h1.73a26 26 0 014.68.61 27.74 27.74 0 012.8.82 26.6 26.6 0 013 1.29 27.94 27.94 0 015.87 4 45.3 45.3 0 015.3 5.64c1.66 2.06 3.21 4.25 4.77 6.39.78 1.07 1.57 2.12 2.39 3.08a13.22 13.22 0 002.55 2.41c.37.26.783.452 1.22.57.184.042.371.066.56.07.093.01.187.01.28 0a4.79 4.79 0 00.49-.05c1.34-.15 2.66-.3 3.95-.49s2.53-.43 3.74-.72l.9-.23h.06c-.29.1-.07 0-.13 0h.12l.23-.08.23-.09c.06 0 .19-.06.18-.08a.78.78 0 01.15-.1h.08l.1-.09.21-.17.18-.21a5.3 5.3 0 001-2.57 18.41 18.41 0 00.22-3.26c0-2.22-.24-4.41-.42-6.45-.37-4.08-.63-7.64 0-10.36a8.19 8.19 0 011.29-3.2 5 5 0 01.65-.78l.24-.25 2.3 2.52-.1.12a1.36 1.36 0 00-.27.34 4.84 4.84 0 00-.72 1.93 17.33 17.33 0 00-.19 3.89c0 1.59.23 3.41.44 5.45s.47 4.26.54 6.73a23.42 23.42 0 01-.22 3.93 11.42 11.42 0 01-.53 2.15c-.142.382-.306.756-.49 1.12l-.33.55-.17.27-.22.26-.44.52-.52.46-.27.22-.33.21c-.23.13-.46.26-.7.38a.86.86 0 01-.26.11l-.23.09-.23.09h-.11l-.18.06h-.06l-1 .27c-1.34.35-2.71.63-4.08.85-1.37.22-2.74.4-4.09.57l-.53.07h-.73a6.41 6.41 0 01-1.46-.17 7.76 7.76 0 01-2.5-1.08 17.2 17.2 0 01-3.45-3.11c-1-1.1-1.81-2.2-2.63-3.29-1.64-2.17-3.17-4.27-4.75-6.17a41 41 0 00-4.86-5 23.36 23.36 0 00-5-3.36 20.2 20.2 0 00-4.73-1.66c-1.61-.22-7.83-4.89-7.83-4.89z" fill="#096C9E" fill-rule="nonzero"/><path d="M1512.77 87.1c-.88 1.76-1 3.74-1.87 5.29-.87 1.55 2.64 7.49 3.08 12.34.44 4.85-1.1 9 1.77 7.28a8.72 8.72 0 003.75-6.84s1.54-3.52-.23-8.82c-1.77-5.3-6.5-9.25-6.5-9.25z" fill="#88C1D8" fill-rule="nonzero"/><ellipse fill="#9ACAD8" fill-rule="nonzero" cx="1428.38" cy="161.61" rx="8.82" ry="7.64"/><path d="M1532.13 164.35s-14.4 14.69-77.59 14.69c-63.19 0-77.6-1.76-77.6-3.82 0-2.06-3.24-65.55-51.74-66.43-48.5-.88-41.44 50-41.44 52.91 0 2.91-51.15-9.7-51.15-9.7l-87.22-32.14-1-1.54-1-.41c11.3 17.18 20.73 30.93 20.73 30.93l127.57 35.27s-4.11-25.86-1.76-43.21c2.35-17.35 16.55-28.83 37.92-26.16 14.1 1.77 40.18 21.09 40.56 54.38.29 25.87 7.64 26.46 7.64 26.46s29.62 4.55 72.24-.74c42.62-5.29 65.4-8.46 81.78-18.74 11.25-7.05 2.35-9.62 2.35-9.62s.12-1 .29-2.6l-.58.47z" fill="#096C9E" fill-rule="nonzero"/><path d="M1362.35 169.56c1.55 25.59-12.5 47.26-31.39 48.41-18.89 1.15-34.58-18.66-36.14-44.25-1.56-25.59 11.61-47.27 30.5-48.42 18.89-1.15 35.47 18.63 37.03 44.26z" fill="#28316B" fill-rule="nonzero"/><path d="M1349.69 170.27c1 16.79-8.19 31-20.58 31.76-12.39.76-22.38-12.25-23.4-29-1.02-16.75 7.31-31 19.7-31.75s23.26 12.21 24.28 28.99z" stroke="#09516D" stroke-width="4.41" fill="#65ABCE" fill-rule="nonzero"/><path d="M1349.69 170.27c1 16.79-8.19 31-20.58 31.76-12.39.76-22.38-12.25-23.4-29-1.02-16.75 7.31-31 19.7-31.75s23.26 12.21 24.28 28.99z" stroke="#096C9E" stroke-width="1.76"/><path d="M1334.47 171.2c.32 5.17-2.52 9.55-6.34 9.78-3.82.23-6.89-3.77-7.21-8.94-.32-5.17 2.26-9.55 6.07-9.78 3.81-.23 7.17 3.77 7.48 8.94z" fill="#096C9E" fill-rule="nonzero"/><path d="M1214.87 82.57l13.53 1.2" stroke="#086C9E" stroke-width="2.06" fill="#238CC1" fill-rule="nonzero" stroke-linecap="round"/><path d="M1273.05 71.93c-2.87.22-13.89.44-20.73-.66s-11.9-3.31-10.8-8.38c1.1-5.07.44-10.14 3.09-9.92 2.65.22 21.82.44 24.25 1.55 2.43 1.11 4.63 5.73 7.49 7.05 2.86 1.32 9 1.32 8.82 5.07-.18 3.75-2.42 5.95-6.61 5.73-4.19-.22-5.51-.44-5.51-.44z" fill="#096C9E" fill-rule="nonzero"/><path d="M1243.73 175.58c-.65-13.25-3.33-20.45-7.16-29.13a38.72 38.72 0 00-27.18-22.68c-.17-.15-8.17-.1-8.39-.17-3.31-1.15-15.88-16.68-17.66-15.52a.39.39 0 00-.1.08 24.51 24.51 0 00-3.18.64c-18.8 5.12-22 31.39-22 57.12 0 19.15.16 29.5 10.83 43.3a35.27 35.27 0 0010.44 9.5c6.08 3.42 9.8 3.57 12.82 4.13 4.14.62 21.49-1.09 24.16-2 13.58-5.24 28.62-21.04 27.42-45.27z" fill="#28316B" fill-rule="nonzero"/><ellipse fill="#09516D" fill-rule="nonzero" cx="1191.46" cy="176.52" rx="16.49" ry="24.06"/><path d="M1046.77 137.93c-.51-10.23-2.57-15.79-5.53-22.49a29.93 29.93 0 00-21-17.52c-.14-.11-6.31-.07-6.48-.13-2.56-.88-12.26-12.88-13.64-12l-.08.06c-.83.11-1.651.274-2.46.49-14.51 4-17 24.24-17 44.11 0 14.79.12 22.78 8.36 33.44a27.23 27.23 0 008.06 7.33 25.31 25.31 0 009.9 3.19c3.2.48 16.6-.84 18.66-1.57 10.52-4.01 22.14-16.21 21.21-34.91z" fill="#28316B" fill-rule="nonzero"/><ellipse fill="#09516D" fill-rule="nonzero" cx="1006.41" cy="138.64" rx="12.73" ry="18.58"/><path d="M1070.84 191.85s19.18-1.37 28.09-2.06c3.6 7.88 6.68 8.39 13.36 7.54 7.13-.92 11.47-2.57 13.35-8.91 11.65-.34 65.94-4.79 65.94-4.79l-17.1-18.94s-90.94-2.05-92.48-2.05c-1.54 0-13.36 14.9-13.36 14.9l2.2 14.31z" fill="#09516D" fill-rule="nonzero"/><path d="M1189.49 165.43c0 4.31-2.18 7.86-4.66 7.22a3.34 3.34 0 01-1.83-1.15 9.7 9.7 0 01-2-6.07c0-3.87 1.22-7.83 4.45-7.83 2.48 0 3.99 3.66 4.04 7.83z" fill="#096C9E" fill-rule="nonzero"/><path d="M992.17 144.8L1010 89.08l22.38-5.48 45.21 9.14 22.41 12.33 17.81 16.44 5.71 24.21-3.88 19.64s-48.87 3.19-49.55 3.19c-.68 0-77.92-23.75-77.92-23.75z" fill="#09516D" fill-rule="nonzero"/><path d="M1213.67 114.09c1.72-.34 5.77.82 10.17 1.6 3.11.55 17.06-.49 20.32-.23 2.75.22 1-4.11-3.08-10.62-4.08-6.51-.34-9.93-16.1-13.7-15.76-3.77-20.55-2.4-20.55-2.4l9.24 25.35zM1014 153.48c-1 0-129.48-22.6-129.48-22.6l15.41 13.7 110.64 19.86 3.43-10.96z" fill="#096C9E" fill-rule="nonzero"/><path d="M882.78 47.3s6.85-30.49 7.54-33.23c.69-2.74-5.48-4.8 16.44-7.19 21.92-2.39 63-7.2 101-5.83s77.76 6.17 88 7.54c10.24 1.37 9.25 2.05 16.1 14 6.85 11.95 21.24 39.05 21.92 40.76.68 1.71 29.42-1.35 68.17 14.39 21.92 8.91 10.62 53.21 10.62 53.21l-103.91 5.25s-12.9-16.33-18-22.15-23-20.21-24.66-20.55c-1.66-.34-48.3-3.43-48.3-3.43l-12.67 10.28-12.33 39.39 13.7-2.4-2.74 13.7-1.71 2.74-90.78-15.41-28.39-91.07z" fill="#0280B2" fill-rule="nonzero"/><path d="M1080.79 186.93c0-13.26-2.23-24.15-6-32.83-5.59-12.69-12.48-20.66-22.56-24.42a1.8 1.8 0 00-.58-.35c-3.32-1.14-26.94-1.06-28.73.11l-.1.07a24.71 24.71 0 00-3.17.65c-18.8 5.12-26.09 31.39-26.09 57.12 0 19.15 6.54 35.21 14.6 45 6.67 6.59 7.46 6 13.59 8.2 5.41 1.24 34-2 34.06-2.07 13.5-5.18 24.92-23.78 24.98-51.48z" fill="#28316B" fill-rule="nonzero"/><path d="M1001.43 57.93c9.93-.17 107.81 0 122.13 0a1 1 0 00.91-1.53l-22.53-41.8a1 1 0 00-.86-.54s-35.21-2.76-53.53-3.76-58.53-2-58.53-2a1 1 0 00-1.06 1.3l12.45 47.49c.1.486.524.836 1.02.84zm-18.99.18L975 12.93a1.81 1.81 0 00-1.89-1.52L943 13.07a1.81 1.81 0 00-1.71 1.69l-2.85 42a1.82 1.82 0 001.75 1.94l40.43 1.56a1.821 1.821 0 001.82-2.15zM928 55.14c1-7.25 3.78-28.85 4.53-38.92a2.68 2.68 0 00-2.68-2.89c-8.54 0-25.77 1-34.13 2.48a2.67 2.67 0 00-2.1 1.86c-2.3 7.47-7.55 27.14-9.61 34.94a2.69 2.69 0 002.5 3.38l38.72 1.49a2.69 2.69 0 002.77-2.34z" fill="#88C1D8" fill-rule="nonzero"/><path d="M992.28 148.12l-3.2-.92s13-45 14.16-48.18a14.33 14.33 0 015.94-7.08c2.06-1.14 14.84-5 17.36-5.48 2.52-.48 13-3.43 46.81 2.28 9.08 1.54 16.21 3.43 18.27 7.77 5.17 10.92 9.13 20.89 9.13 20.89s-27.86.23-30.6.23c-2.74 0-13-.23-13.7-1.37-.7-1.14-.91-4.68-2.51-7.42-1.6-2.74.45-4.8-12.33-6.4-12.78-1.6-21.47-2.05-25.35-2.51-3.88-.46-7.77-.46-10 6.85-2.23 7.31-11.64 34.71-11.64 34.71l-2.34 6.63zm67.37-11.19c-.26.78 11.42 17.35 12.56 18.95 1.14 1.6-.46 3.65 13.7 5.48 14.16 1.83 15.07.69 12.79 8.68-2.28 7.99 4.11 2.51 11.19 6.39 7.08 3.88 6.16 5.48 14.15 4.8 7.99-.68 71.71-5.25 74-5.48 2.29-.23-.68-3.66 5.94-4.57 6.62-.91 8-2.51 11.19-4.8 3.19-2.29 7.31-.91 8.68-3s.68-5.49 5.48-6.86c4.8-1.37 11-3 12.1-4.79 1.1-1.79 5-1.37 7.76-1.83 2.76-.46 4.57-4.34 4.34-8-.23-3.66 0-11.42-.68-11.65-.68-.23-13.7-3.19-21.47-3-7.77.19-13.24-.68-14.38.23-1.14.91 3.65 2.74 3.65 2.74s-106.64 4.11-115.55 4.34c-8.91.23-18 2.06-26 1.14-8-.92-17.4-4.94-19.45 1.23z" fill="#096C9E" fill-rule="nonzero"/><path d="M1128.75 89.18c1.09 5.15 2.64 24 3 30.52m6.94-30.98c1.09 5.15 2.63 24.35 3 30.87m6.93-31.21c1.09 5.15 2.64 24.7 3 31.21m6.93-30.98c1.09 5.15 2.64 24 3 30.52m6.94-31.09c1.09 5.15 2.64 24.35 3 30.86m6.93-30.18c1.09 5.15 2.64 23 3 29.5m6.93-29.5c1.09 5.15 2.64 23 3 29.5" stroke="#096C9E" stroke-width="3.43" stroke-linecap="round"/><ellipse fill="#88C1D8" fill-rule="nonzero" cx="1108.17" cy="96.7" rx="9.59" ry="12.25"/><path d="M1209.91 95.05c0 6-3.84 10.93-8.57 10.93a7.3 7.3 0 01-4.79-1.86c-.63-3.16-2.4-12.07-2.67-14.43 1.46-3.33 4.26-5.57 7.46-5.57 4.73 0 8.57 4.89 8.57 10.93z" fill="#88C1D8" fill-rule="nonzero"/><path d="M1025.19 217.38a8 8 0 01-2-.25l-1-.33c-2.48-.86-3-1.05-6.11-4.12-5-6.12-8-15.4-8-24.85 0-23.45 9-31.8 17.34-31.8 8.84 0 15.94 14 16.16 31.82.13 10.36-3.16 20.2-8.59 25.7-2.43 2.5-5.14 3.83-7.8 3.83z" fill="#65ABCE" fill-rule="nonzero"/><path d="M1025.47 157.74c7.76 0 14.24 13.52 14.45 30.13.12 9.77-3.06 19.37-8.1 24.47-1.5 1.52-3.86 3.33-6.63 3.33a6.34 6.34 0 01-1.5-.18l-.9-.31c-2.31-.8-2.63-.92-5.4-3.65-4.73-5.82-7.55-14.67-7.55-23.7 0-8.49 1.42-16.12 4-21.48 2.79-5.79 6.59-8.61 11.63-8.61zm0-3.42c-13.83 0-19.05 16.95-19.05 33.51 0 11.07 3.77 20.35 8.43 26 3.85 3.81 4.31 3.67 7.85 4.93.813.214 1.65.322 2.49.32 9.66 0 18.36-14.22 18.15-31.26-.22-17.85-7.38-33.51-17.87-33.51v.01z" fill="#09516D" fill-rule="nonzero"/><path d="M1041.55 187.76c.21 17.36-8.78 31.61-18.74 29.05-3.32-1.18-3.41-1.06-7-4.63-4.38-5.31-7.58-14-7.58-24.42 0-15.55 4.6-32.3 17.41-31.65 9.82.49 15.7 14.89 15.91 31.65z" stroke="#096C9E" stroke-width=".96"/><path d="M1028.77 186.93c0 4.31-2.19 7.86-4.66 7.22a3.34 3.34 0 01-1.83-1.15 9.7 9.7 0 01-2-6.07c0-3.87 1.22-7.83 4.45-7.83 2.48.04 3.99 3.7 4.04 7.83z" fill="#096C9E" fill-rule="nonzero"/><path d="M939.3 68.01l15.08 1.03" stroke="#086C9E" stroke-width="2.06" fill="#238CC1" fill-rule="nonzero" stroke-linecap="round"/><path fill="#BBDFEA" fill-rule="nonzero" opacity=".54" d="M1078.32 14.68l31.23 39.62-11.67-.81-30.84-39.74zm4.26.32l32.35 39.51-3.6-.3-31.43-39.5z"/><path d="M478.93 183.28s14.73-70.22 15.76-70.9c1.03-.68 34.25-5.83 34.25-5.83l16.79 31.86.34 29.8-2.74 10.62-6.46 8-72.32 4.71 14.38-8.26z" fill="#09516D" fill-rule="nonzero"/><path d="M294.43 26.55l-6.17 11.64-2.72-1.44 7.3-10.35a.92.92 0 011.59.15zM104.85 83.66c-.24-4.35-.8-9.82 3.54-10.05 4.34-.23 18.61 0 22 .23 3.39.23 5.14 4.45 4.8 8-.34 3.55 1.71 4.45-8.22 4.79-9.93.34-21.9 1.14-22.12-2.97z" fill="#096C9E" fill-rule="nonzero"/><path fill="#09516D" fill-rule="nonzero" d="M242.88 179.79l-68.16 8.22 5.48-78.1 44.87-3.42 19.53 29.11-3.77 26.38z"/><path fill="#313F82" fill-rule="nonzero" d="M206.71 129.48l-23.08-1.58v2.56l25.61 6.79z"/><path d="M177.24 170.68c0 19.53 5.81 31.26 14.67 36.51 3.75 2.23 7.26 4.26 12.71 3.3 4.22-.75 8-1.46 12.12-4.3 8.58-6 15.46-18.17 15.46-35.84 0-26.5-11.63-41-27.58-41-15.62.04-27.38 18.91-27.38 41.33z" fill="#313F82" fill-rule="nonzero"/><path d="M159.26 168.59c0 19.27 5.81 30.85 14.67 36 3.76 2.2 7.26 4.2 12.71 3.25 4.22-.73 8.73-1.44 12.8-4.24 8.58-5.92 15.46-17.93 15.46-35.37 0-26.15-12.59-39.84-28.53-39.84-15.61.03-27.11 18.07-27.11 40.2z" fill="#313F82" fill-rule="nonzero"/><path d="M96.39 86.28c-2.51.69-72.49 11.3-82.89 28.78-5.71 9.59-4.8 16.44-4.8 16.44s-5-.69-5.93 2.51c-.93 3.2-2.52 21.24-1.37 24 1.15 2.76-.23 13 2.05 13.7 2.28.7 2.39 1.18 3 4.2.51 2.68 7.28 7 34.65 8.53 28.56 1.64 56.13 6.67 86.9 5.92 14-.34 27.91-2 43.78-3.81 1.37-11.87 1.45-64.89 33.11-65.76 24.89-.69 31.75 19.86 29.23 47.72 0 0 0 10.51 1.6 11.88 1.6 1.37 68.05-7.54 68.05-7.54l106-21.46-12.56-66.23s-16-14.84-29.69-23.06c-13.69-8.22-30.44-25.17-58.75-25.83-33.58-.81-127.88 2.29-136.33 6.62-42.53 21.84-76.05 43.39-76.05 43.39z" fill="#238CC1" fill-rule="nonzero"/><path d="M262.87 45.86s-29.69 27.18-34.8 32.89c-8.34 9.32-11.9 8.1-21.84 8-19.86-.23-94.31.46-99.1-.91-4.79-1.37 63.71-37.68 66.91-39.28 19.1-1.89 74.48-1.78 88.83-.7zm97.73 22.15s-18-23.74-44.53-23.52c-26.53.22-39.5-3.19-53 12.33s-28.31 32.43-25.34 32.2c2.97-.23 99.53-9.56 124-11.19 6.87-.45-1.13-9.82-1.13-9.82z" stroke="#88C1D8" stroke-width=".81" fill="#88C1D8" fill-rule="nonzero"/><path d="M159.88 123.51c1.37-4.34 1.6-8.68-4.57-8.23-8 .6-32.88 5.71-52.29 6.4-7.31.26-13 1.83-12.79 5.94.21 4.11-1.6 8.45 11 8.67 12.6.22 39.05 1.37 46.13-2.05 7.08-3.42 9.13-2.06 10.5-4.11 1.37-2.05 2.02-6.62 2.02-6.62z" fill="#88C1D8" fill-rule="nonzero"/><path d="M85.15 169.18c-3.73-11.74-8.22-25.66-10.28-32-2.06-6.34-4.45-13.73-19.07-13a243.06 243.06 0 01-31.63-.49c-7.3-.5-12.33-2.7-12.56 4.9-.23 7.6.12 39.31.8 42.75.68 3.44.55 3.95 7.65 5.74 5.49 1.37 39.74 6.33 60 4.45 7.45-.72 8.51-1.6 5.09-12.35z" fill="#096C9E" fill-rule="nonzero"/><path d="M81 140.4c-1.72 0-50.61 2.06-70.48-4.79-5.3-1.83-1.2 16.95-1.2 16.95s18.41 8.05 80.07 6C97 158.31 81 140.4 81 140.4z" fill="#238CC1" fill-rule="nonzero"/><path d="M146.63 176.03c-3.59 1-17.47 4.28-41.27 3.42-1.72-.06-7.54-17.29-7.88-18 0 0 12.67-.17 19.87-.69 7.2-.52 9.93-2.22 17.81 4.46a117.64 117.64 0 0111.47 10.81z" fill="#096C9E" fill-rule="nonzero"/><path d="M4.76 172.55c6.68 3.82 11.59 6.33 36.94 9.19 20.93 2.35 83.75 7.54 130.17-2.05l.4-.08c-.22 2.94-.39 5.35-.58 7-15.87 1.83-30.15 3.47-44.18 3.82-30.77.75-58.86-1.25-87.75-4.27-21.72-2.27-35-6.86-35-9.26 0-2.4-.28-3.16 0-4.35zm341.11-11.37l-111.55 12.34s-.23 5.66 1.37 7c1.6 1.34 143.18-17.08 143.18-17.08l-17.39-2.16-15.61-.1zm-9.93 18.56a.52.52 0 000-1 .52.52 0 000 1z" fill="#096C9E" fill-rule="nonzero"/><path d="M184.14 170.24c0 20.89 8.84 31.24 20.56 31.24 10 0 21.23-11.92 21.23-31.49 0-19.9-9.25-31.3-21.23-31.3-11.7 0-20.56 14.71-20.56 31.55z" stroke="#09516D" stroke-width="2.31" fill="#65ABCE" fill-rule="nonzero"/><path d="M201.47 170.11c0 3.57 1.51 5.34 3.51 5.34 1.7 0 3.62-2 3.62-5.38s-1.58-5.35-3.62-5.35-3.51 2.51-3.51 5.39z" fill="#096C9E" fill-rule="nonzero"/><path d="M184.14 170.24c0 20.89 8.84 31.24 20.56 31.24 10 0 21.23-11.92 21.23-31.49 0-19.9-9.25-31.3-21.23-31.3-11.7 0-20.56 14.71-20.56 31.55z" stroke="#096C9E" stroke-width="1.03"/><path fill="#313F82" fill-rule="nonzero" d="M181.99 207.99l19.65 2.74-.21-3.33-19.53-6.79z"/><path d="M316.42 94.39l-14.28-9.13a148.54 148.54 0 00-4.91-28.66c-4.11-14.39-5.25-14.85-5.25-14.85l14.62 1.37a122.73 122.73 0 016.85 21.58 135.08 135.08 0 013 29.23m26.68-41.9s6.17 21.58 5.71 29.57c-.46 7.99 8.68-3.42 8.68-3.42s-4.79-19.76-8-22.5a18.94 18.94 0 00-6.39-3.65z" fill="#238CC1" fill-rule="nonzero"/><path d="M273.26 85.71c.24-4.34.8-9.82-3.54-10-4.34-.18-18.61 0-22 .23-3.39.23-5.14 4.46-4.79 8 .35 3.54-1.72 4.45 8.22 4.79 9.94.34 21.85 1.09 22.11-3.02z" fill="#096C9E" fill-rule="nonzero"/><path d="M320.41 99.53s-2.28 2.28-14.38 1.6" stroke="#096C9E" stroke-width="3.08" stroke-linecap="round"/><path d="M451.54 146.78H431.6l-12.28 40.57c-.64 24.41 9.57 31.65 12.28 31.65 2.71 0 19 .25 19 .25" fill="#313F82" fill-rule="nonzero"/><path d="M466.17 184.49c0 16.29-3.42 29.32-9.12 32.31a18.38 18.38 0 01-7.06 2.31 7.91 7.91 0 01-7.26-2.66c-4.27-4.54-7-14.35-7-32 0-20.32 7.33-37.64 14.25-37.64s16.19 17.36 16.19 37.68zm41.93-42.99h-26.43l-15.25 53.78c-.86 32.37 11.65 41.62 15.25 41.62 3.6 0 25.17.68 25.17.68" fill="#313F82" fill-rule="nonzero"/><path d="M524.72 191.5c0 21.59-4.34 35.59-9.87 42.09-2.14 2.51-2.58 3.14-6.75 3.8a10.51 10.51 0 01-9.64-3.53c-5.66-6-9.26-19-9.26-42.46 0-26.94 9.72-49.9 18.9-49.9 9.18 0 16.62 23.06 16.62 50zm-215.8-53.43h-26.43l-16.27 53.78c-.86 32.37 15.08 42 18.67 42 3.59 0 22.78.35 22.78.35v-.07c.419-.02.836-.062 1.25-.13a24.42 24.42 0 009.36-3c7.56-4 13.44-21.25 13.44-42.84 0-27.03-13.62-50.09-22.8-50.09z" fill="#313F82" fill-rule="nonzero"/><path d="M415.21 29.15l8.91-6.17s26.72-5.82 64.05-5.48c37.33.34 39.4 1.37 39.4 1.37l7.19 8.57" stroke="#086C9E" stroke-width="2.4"/><path d="M529.33 199.13s50.87-6.17 67.82-10.79c16.95-4.62 25.18-58.57 25.18-58.57s0-32.89-4.11-40.59c-4.11-7.7-17-39.05-37-50.87s-38.02-14.38-53.94-13.38c-15.92 1-73.25 2.31-85.58 2.82-12.33.51-34.94-1.37-49.32 4.8-14.38 6.17-52.12 29.88-63.42 41.7-11.3 11.82-10.79 9.76-17 11.82-6.21 2.06-22.09 7.19-26.2 10.78-4.11 3.59-7.19 7.2-12.84 9.77-5.65 2.57-10.24 10.31-15.92 20.58-5.68 10.27-5.14 40.07-3.08 47.27 2.06 7.2 2.86 9.39 4.62 16.44.51 2 1.54 13.36 10.28 15.92 8.74 2.56 17.17.21 33.1-1.84 1.84-.24 89.17.4 102.53-1.15 13.36-1.55 48.81.94 63.71-.09 4.72-.32 7.44-2.85 14.62-3.33.9-.06 1.81-.12 2.75-.16 0 0 .22-46.2 14.37-61 14.15-14.8 21.65-4.87 24.67 3 3.02 7.87 5.84 27.03 4.76 56.87z" fill="#0280B2" fill-rule="nonzero"/><path d="M531.91 88.52l-4.12-24.66s7.31-14.39 9.37-18.5c2.06-4.11 5.93-7.53 13.24-6.62 7.31.91 22.84 1.14 46.82 19.64 7.77 6 12.33 29 9.13 29-11.56 0-74.44 1.14-74.44 1.14zM325.7 85.1c-.8 1.4 40-3.2 91.57-2.29 51.57.91 72.39.69 80.38-2.74 7.99-3.43 15.92-16.6 28.55-41.1 3.88-7.54-77-5.48-79.93-5.48 0 0-47.5.91-60.29 6.39-12.79 5.48-51.83 30.37-60.28 45.22zm87.69 39.5c.45-.82 3.19-11.87 9.82-15.07 6.63-3.2 33.11-12.56 55-13 21.89-.44 11.42 8 1.83 19s-23.52 8.91-43.39 9.36c-19.87.45-24.4 1.77-23.26-.29z" fill="#88C1D8" fill-rule="nonzero"/><path d="M282.77 112.93s4.11 7.76 11 8.9c6.89 1.14 91.34-.45 96.59-.45s7.67-2.32 10.05-7.08c.69-1.37 2.74-3.66-.23-3.66s-118.56-.42-117.41 2.29z" fill="#086C9E" fill-rule="nonzero"/><path d="M271.58 107.48c1-.33 5.48 2.74 6.62 3.19 1.14.45 1.83 15.3-1.14 16.67-2.97 1.37-17.81-1.59-16.9-4.79.91-3.2 7.31-13.7 11.42-15.07z" fill="#88C1D8" fill-rule="nonzero"/><path d="M395.8 169.59s31.52-.68 32.43-1.6a69.45 69.45 0 018.22-6.39c2.06-1.14 6.85-1.37 8.91-1.6 2.06-.23 7.53 6.39 7.76 7.54.23 1.15-6.62 8.67-10.27 9.59-3.65.92-42.48 2.51-43.39 2.05-.91-.46-3.66-9.59-3.66-9.59zm-115.09-.23c-1.14 0-11.42.69-11.87-.23a70.92 70.92 0 00-6.85-7.53c-.92-.69-3.43.23-3.66 1.37-.23 1.14.92 5.94 1.6 7.53.68 1.59 0 4.11 2.74 4.8 2.74.69 14.84 1.37 14.84 1.37s5-4.8 5-5.48c0-.68-1.8-1.83-1.8-1.83zm4.11-28.89s4.57 35.74 13.7 36.43c9.13.69 70.34.91 74.45.68 4.11-.23 5.93-2.28 7.53-7.08 1.6-4.8 7.08-24.2 8.22-26.49 1.14-2.29 1.37-3.42-2.74-3.42s-36.3.46-53.66.23-47.5-.35-47.5-.35z" fill="#086C9E" fill-rule="nonzero"/><path d="M255.59 181.58s16.1 5.82 23.64 5.82a14.47 14.47 0 0011.3-5.14l90.47.67 11 7.88s74.33 1.37 89.75-6.17c0 0 1.71-58.23 30.82-58.57 23.64-.28 20.21 55.49 20.21 51l75.36-12 5.85-1c-4.08 11.67-9.65 22.28-16.76 24.22-17.03 4.64-67.9 10.84-67.9 10.84 1.08-29.84-1.68-49-4.73-56.94-3.05-7.94-10.51-17.81-24.67-3-14.16 14.81-14.37 61-14.37 61-.94 0-1.85.1-2.75.16-7.18.48-9.9 3-14.62 3.33-9.52.66-27.1 4-42.28 3.76-8.57-.14-16.61-4.22-21.43-3.67-13.36 1.55-100.69.91-102.53 1.15-15.93 2.05-24.37 4.41-33.1 1.84-8.73-2.57-9.77-13.83-10.28-15.83-1-3.92-1.66-6.34-2.43-9l-.55-.35z" fill="#086C9E" fill-rule="nonzero"/><path d="M564.79 106.34c.91-.23 5.94 0 8.45-.69" stroke="#096C9E" stroke-width="3.08" stroke-linecap="round"/><path d="M510.06 224.05c-5.06 0-12.41-13.74-12.41-35.28 0-9.68 1.57-19 4.42-26.26 2.43-6.2 5.55-10.05 8.14-10.05 5.18 0 11.19 16.16 11.19 37 0 22-6.65 34.44-11.25 34.59h-.09z" fill="#65ABCE" fill-rule="nonzero"/><path d="M510.21 154.18c2.75 0 9.48 12.36 9.48 35.28 0 9.47-1.33 18.26-3.75 24.74-2.21 5.9-4.7 8.1-5.88 8.14-3.1 0-10.7-11.76-10.7-33.57 0-9.33 1.57-18.67 4.3-25.63 2.56-6.53 5.38-9 6.55-9v.04zm0-3.47c-6.94 0-14.27 17-14.27 38 0 21.54 7.41 37 14.12 37h.15c6.62-.22 12.9-15.3 12.9-36.3 0-21-6-38.71-12.9-38.71v.01z" fill="#313F82" fill-rule="nonzero"/><path d="M510.21 154.18c2.75 0 9.48 12.36 9.48 35.28 0 9.47-1.33 18.26-3.75 24.74-2.21 5.9-4.7 8.1-5.88 8.14-3.1 0-10.7-11.76-10.7-33.57 0-9.33 1.57-18.67 4.3-25.63 2.56-6.53 5.38-9 6.55-9v.04zm0-3.47c-6.94 0-14.27 17-14.27 38 0 21.54 7.41 37 14.12 37h.15c6.62-.22 12.9-15.3 12.9-36.3 0-21-6-38.71-12.9-38.71v.01z" fill="#09516D" fill-rule="nonzero"/><path d="M510.35 153.41c3.6 0 10.21 13.67 10.21 36 0 20.11-5.36 33.61-10.37 33.61-2.46 0-5.4-3.79-7.69-9.9a72.59 72.59 0 01-4-24.37c0-9.7 1.67-19 4.7-26.16 2.85-6.74 5.84-9.18 7.16-9.18h-.01zm.01-1.37c-4.82 0-13.23 14.47-13.23 36.71 0 18.75 6.58 35.64 13.07 35.64s11.74-14.74 11.74-35c0-21.87-6.47-37.37-11.58-37.37v.02z" fill="#096C9E" fill-rule="nonzero"/><path d="M514.16 188.2c0 5.05-1.51 8.67-3.1 8.72-1.59.05-3.43-3.67-3.43-8.88 0-5 1.77-9.13 3.43-9.13 1.66 0 3.1 4.25 3.1 9.29z" fill="#096C9E" fill-rule="nonzero"/><path d="M567 38.28c.11.12 15.07 29.35 16.44 54.92.63 11.8 7.52 6.62 6.17-3.42-2-15-11.87-42.56-16.45-49-7.69-10.72-6.16-2.5-6.16-2.5zm-39.21 25.58S517.4 84.3 516.38 86.35c-1.02 2.05-1.75 2.17 15.53 2.17 1.25 0 2.6-4.62-.23-10.39a48 48 0 01-3.89-14.27z" fill="#0280B2" fill-rule="nonzero"/><path d="M542.91 87.28c10.56-.46 19.45 0 17.53-5.52-1.92-5.52-.72-9.13-13.21-10.33-12.49-1.2-24.73-1.92-23.77 6.73.96 8.65-2.64 10.08 19.45 9.12zm98.18-9.9s-7.08-.91-8.45-1.37c0 0 .46-8.9-.23-10.05-.69-1.15-20.55-1.37-24.2-1.14-3.65.23-9.82 5.25-13.71 12.79-3.89 7.54 4.8 10.28 11.19 11 6.39.72 20.56 2.74 21.93 1.83 1.37-.91 3.88-5.48 5.7-5.25a15.5 15.5 0 014.34 1.59m250.25-9.4s7.08-.91 8.45-1.37c0 0-.46-8.9.23-10.05.69-1.15 20.55-1.37 24.21-1.14 3.66.23 9.81 5.25 13.7 12.79 3.89 7.54-4.8 10.28-11.19 11-6.39.72-20.55 2.74-21.92 1.83-1.37-.91-3.89-5.48-5.71-5.25a15.5 15.5 0 00-4.34 1.59" fill="#086C9E" fill-rule="nonzero"/><rect fill="#28316B" fill-rule="nonzero" x="892.72" y="188.32" width="56.9" height="87.34" rx="15.01"/><rect fill="#28316B" fill-rule="nonzero" x="581.62" y="188.32" width="56.9" height="87.34" rx="15.01"/><path d="M781.27 241.93c113.72-2.06 153.45-4.11 159.62-11 6.17-6.89 5.48-6.86 9.59-22.61 4.11-15.75 3.43-67.82 2.74-79.47-.69-11.65-4.11-14.39-8.91-21.24-4.8-6.85-4.79-8.22-9.59-11 0 0-21.23-4.11-24.66-9.93-3.43-5.82-29.12-61.66-38-68.17C863.18 12 848.4 5.93 768.59 5.93h-8.43c-79.82 0-94.55 6.16-103.45 12.67-8.9 6.51-34.6 62.34-38 68.17-3.4 5.83-24.71 9.96-24.71 9.96-4.79 2.74-4.79 4.11-9.59 11s-8.22 9.59-8.9 21.24c-.68 11.65-1.37 63.71 2.74 79.47 4.11 15.76 3.42 15.75 9.59 22.61 6.17 6.86 45.9 8.9 159.62 11l33.81-.12z" fill="#238CC1" fill-rule="nonzero"/><path d="M578.27 208.93c4.11 15.76 3.42 15.76 9.59 22.61s45.9 8.91 159.62 11h33.79c113.72-2.05 153.45-4.11 159.62-11 6.17-6.89 5.48-6.85 9.59-22.61-6.66 19.12-96.35 22.46-188.61 22.71-84.76.29-172.45-.87-183.6-22.71z" fill="#086C9E" fill-rule="nonzero"/><path d="M870.21 20.93c-3.87-1.49-44.62-5.57-94.33-6.61v-.24c-3.827 0-7.633.02-11.42.06-3.787.04-7.597.02-11.43-.06v.24c-49.71 1-90.45 5.12-94.33 6.61-4.45 1.71-30.48 57.54-30.48 57.54s4.11 1 26.37-1c21.25-2 81.19-3 109.84-3.07 28.65.09 88.58 1.11 109.83 3.07 22.26 2.06 26.38 1 26.38 1s-25.98-55.84-30.43-57.54zM598.59 122.31c-1.59-.13-2.74-.69-3.65 1.37-.91 2.06-2.06 23.52-2.06 25.12 0 1.6.92 2.74 6.4 3.42 5.48.68 13 2.06 15.07 1.37 2.07-.69 4.34-5.48 10.73-6.39 6.39-.91 26.49.45 28.09.23 1.6-.22 4.34 1.59 17.58-14.39 2.6-3.11-3.88-5.48-72.16-10.73z" fill="#88C1D8" fill-rule="nonzero"/><path d="M760.72 132.81h5.6c16.8 0 43.11-.29 54.76 0 18.08.46 17.35 4.11 20.55 9.36 3.2 5.25-.41 32.89-9.66 34.26-9.25 1.37-31 3.1-70.26 3h-1.85c-39.29.12-61-1.61-70.27-3-9.27-1.39-12.86-29-9.66-34.26 3.2-5.26 2.47-8.9 20.55-9.36 11.65-.29 38 0 54.77 0h5.59" fill="#086C9E" fill-rule="nonzero"/><path d="M680.34 196.52c-1.61 0-56.4-2.74-70.56-5-14.16-2.26-13.93 10.73-13 16.44.93 5.71 1.18 9.35 13.71 10.28 12.33.91 52.18 4.56 55.37 1.14 3.19-3.42 20.19-22.86 14.48-22.86z" fill="#096C9E" fill-rule="nonzero"/><path d="M926.51 122.31c1.6-.13 2.74-.69 3.66 1.37.92 2.06 2.05 23.52 2.05 25.12 0 1.6-.91 2.74-6.39 3.42-5.48.68-13 2.06-15.07 1.37-2.07-.69-4.34-5.48-10.73-6.39-6.39-.91-26.49.45-28.09.23-1.6-.22-4.34 1.59-17.59-14.39-2.59-3.11 3.89-5.48 72.16-10.73z" fill="#88C1D8" fill-rule="nonzero"/><path d="M844.76 196.52c1.62 0 56.41-2.74 70.57-5 14.16-2.26 13.92 10.73 13 16.44-.92 5.71-1.17 9.35-13.7 10.28-12.33.91-52.18 4.56-55.38 1.14-3.2-3.42-20.2-22.86-14.49-22.86zm-79.55.7c-23.15 0-41.28-.55-59.09-.55-5.48 0-19.18 24.29-15.07 24.29 4.11 0 28.17 2.4 77.67 2.4s69.19-2.43 73.28-2.43c4.09 0-9.59-24.29-15.08-24.29-17.8 0-36.45.55-59.59.55l-2.12.03z" fill="#096C9E" fill-rule="nonzero"/><path fill="#BBDFEA" fill-rule="nonzero" opacity=".53" d="M802.45 19.52l66.27 53.92-25.27-.69-65.42-54.12zm9.21.29l68.72 53.75-7.78-.29-66.72-53.78z"/><g opacity=".8"><path opacity=".53" d="M409.26 39.03L360.48 80l18.58-.55 48.16-41.12zm-6.77.23L351.91 80.1l5.72-.23 49.11-40.85z" fill="#BBDFEA" fill-rule="nonzero"/></g><g opacity=".8"><path opacity=".53" d="M185.9 50.89l-55.35 31.66 10.7-.13 54.64-31.79zm-6.4.07l-57.42 31.53 5.19-.09 55.74-31.56z" fill="#BBDFEA" fill-rule="nonzero"/></g><path fill="#BBDFEA" fill-rule="nonzero" opacity=".53" d="M1332.25 23.74l59.22 38.07-12.47-.28-58.45-38.22zm7.61.13l61.42 37.92-6.32-.14-59.62-37.95z"/></g><g fill-rule="nonzero"><g opacity=".83"><path fill="#55CB52" d="M883.349 190.418l-16.647 18.07-10.15-9.349 16.647-18.071z"/><path d="M868.11 192.72a2.84 2.84 0 011.94-.84l.19.9a2.35 2.35 0 00-1.49.53l1.18 1.08c.73-.48 1.57-.94 2.37-.2a1.7 1.7 0 010 2.37l.56.52-.45.49-.57-.53a2.84 2.84 0 01-1.68.72l-.15-.9a2.22 2.22 0 001.18-.42l-1-1c-.75.47-1.62.94-2.44.18a1.7 1.7 0 010-2.46l-.54-.5.44-.49.46.55zm2.6 2.39l.95.87a.73.73 0 000-1c-.22-.24-.56-.11-.95.13zm-1.36-.35l-1.05-1c-.32.48-.24.87 0 1.09.24.22.64.15 1.05-.09z" fill="#50AA4B"/><path d="M858.2 198.98l14.95-16.24 8.47 7.8-15 16.24-8.42-7.8zm15-14.71l-13.48 14.66 6.88 6.33 13.5-14.65-6.9-6.34z" fill="#50AA4B"/></g><g opacity=".85"><path fill="#55CB52" d="M1018.75 185.938l12.753-13.99 7.856 7.16-12.752 13.99z"/><path d="M1030.49 184.11a2.15 2.15 0 01-1.49.66l-.15-.7c.42 0 .825-.145 1.15-.41l-.91-.83c-.57.38-1.21.73-1.83.17a1.32 1.32 0 010-1.83l-.44-.4.35-.38.44.41a2.11 2.11 0 011.29-.56l.12.69a1.7 1.7 0 00-.91.33l.82.74c.57-.37 1.24-.73 1.87-.16a1.31 1.31 0 010 1.9l.43.38-.34.38-.4-.39zm-2-1.83l-.73-.67a.56.56 0 000 .79c.16.17.42.07.72-.12h.01zm1 .27l.81.74a.61.61 0 000-.84c-.17-.19-.45-.09-.77.1h-.04z" fill="#50AA4B"/><path d="M1038.1 179.25l-11.45 12.57-6.55-6 11.45-12.56 6.55 5.99zm-11.51 11.4l10.34-11.35-5.33-4.85-10.33 11.34 5.32 4.86z" fill="#50AA4B"/></g><path fill="#55CB52" d="M805.118 175.899l25.234 9.144-5.134 14.168-25.234-9.144z"/><path d="M813.8 190.38a3 3 0 01-1.66-1.6l.83-.56a2.66 2.66 0 001.15 1.27l.6-1.64c-.8-.54-1.61-1.19-1.21-2.3a1.86 1.86 0 012.4-1l.29-.79.68.24-.29.8a3.06 3.06 0 011.43 1.39l-.84.53a2.5 2.5 0 00-.92-1l-.53 1.47c.8.56 1.63 1.23 1.22 2.37a1.86 1.86 0 01-2.47 1.07l-.28.77-.68-.25.28-.77zm1.31-3.62l.48-1.33c-.5-.12-.9 0-1 .42-.1.42.12.62.52.91zm.22 1.51l-.53 1.48a.88.88 0 001.1-.46c.1-.36-.15-.7-.57-1.02z" fill="#50AA4B"/><path d="M824.29 197.73l-22.67-8.22 4.29-11.81 22.67 8.23-4.29 11.8zm-21.16-8.92l20.46 7.41 3.48-9.6-20.46-7.42-3.48 9.61z" fill="#50AA4B"/><g opacity=".9"><path fill="#55CB52" d="M577.498 218.573l10.138-21.1 11.853 5.693-10.137 21.102z"/><path d="M590.82 212.32a2.74 2.74 0 01-1.54 1.3l-.42-.77a2.3 2.3 0 001.21-.89l-1.37-.66c-.54.64-1.17 1.29-2.11.84a1.62 1.62 0 01-.59-2.21l-.67-.31.28-.57.67.32a2.63 2.63 0 011.32-1.12l.39.77a2.14 2.14 0 00-1 .72l1.22.58c.55-.64 1.21-1.3 2.17-.85a1.63 1.63 0 01.71 2.24l.64.3-.27.57-.64-.26zm-3-1.46l-1.11-.53a.69.69 0 00.27.93c.24.13.52-.07.81-.4h.03zm1.33-.06l1.23.59c.16-.53 0-.86-.3-1s-.65.08-.96.41h.03z" fill="#50AA4B"/><path d="M598.11 203.85l-9.11 19-9.88-4.75 9.1-19 9.89 4.75zm-9.59 17.59l8.22-17.11-8-3.86-8.22 17.11 8 3.86z" fill="#50AA4B"/></g><path fill="#55CB52" d="M572.348 150.577l-16.825-7.498 4.21-9.444 16.824 7.498z"/><path d="M567.08 140.29a2.13 2.13 0 011.06 1.18l-.6.35a1.8 1.8 0 00-.72-.93l-.49 1.09c.52.41 1 .9.71 1.64a1.28 1.28 0 01-1.69.56l-.24.53-.45-.21.24-.53a2 2 0 01-.91-1l.6-.32c.12.293.322.546.58.73l.43-1c-.52-.42-1.05-.93-.71-1.69a1.27 1.27 0 011.74-.61l.22-.51.46.2-.23.52zm-1.08 2.42l-.39.88a.55.55 0 00.73-.23c.1-.22-.07-.43-.34-.65zm-.07-1.05l.43-1a.6.6 0 00-.77.26c-.11.28.07.51.34.74z" fill="#50AA4B"/><path d="M560.26 134.75l15.11 6.74-3.51 7.88-15.11-6.74 3.51-7.88zm14 7.14l-13.64-6.07-2.86 6.4 13.64 6.08 2.86-6.41z" fill="#50AA4B"/><g opacity=".86"><path fill="#55CB52" d="M637.631 221.478l-8.641 11.755-6.599-4.85 8.642-11.756z"/><path d="M631.83 226.09l-.23.32-.36-.27a1 1 0 01-1.44.26c-.53-.39-.36-.94-.17-1.44l-.68-.5a1.33 1.33 0 00-.11.74h-.54a1.65 1.65 0 01.23-1.06l-.37-.27.23-.32.37.27a1 1 0 011.38-.28c.52.38.35.92.15 1.41l.77.56a1.46 1.46 0 00.13-.92h.55a1.72 1.72 0 01-.27 1.23l.36.27zm-2.07-2.08a.42.42 0 00-.59.12l.61.46c.1-.26.13-.47-.02-.58zm.43 2c.15.11.39.11.64-.13l-.69-.5c-.09.22-.14.45.05.55v.08z" fill="#50AA4B"/><path d="M623.44 228.27l7.76-10.56 5.51 4-7.71 10.61-5.56-4.05zm7.9-9.67l-7 9.53 4.47 3.29 7-9.53-4.47-3.29z" fill="#50AA4B"/></g><g opacity=".79"><path fill="#55CB52" d="M848.88 96.689l7.976-16.604 9.32 4.478-7.977 16.603z"/><path d="M859.39 91.77a2.13 2.13 0 01-1.21 1l-.33-.6a1.86 1.86 0 00.95-.71l-1.08-.51c-.42.5-.92 1-1.66.66a1.27 1.27 0 01-.51-1.7l-.52-.25.22-.45.53.25a2 2 0 011-.88l.31.61a1.65 1.65 0 00-.76.56l1 .46c.43-.51.95-1 1.7-.67a1.28 1.28 0 01.56 1.76l.51.24-.22.45-.49-.22zM857 90.62l-.87-.42a.56.56 0 00.21.74c.22.1.44-.01.66-.32zm1 0l1 .47c.12-.42 0-.68-.24-.78-.24-.1-.46 0-.71.26l-.05.05z" fill="#50AA4B"/><path d="M865.12 85.11L858 100.02l-7.78-3.74 7.17-14.91 7.73 3.74zm-7.54 13.82l6.47-13.45-6.33-3-6.46 13.45 6.32 3z" fill="#50AA4B"/></g><g opacity=".88"><path fill="#55CB52" d="M1075.2 192.78l-6.394-13.384 7.516-3.59 6.394 13.383z"/><path d="M1070.86 183.28l-.18-.36.41-.19a1 1 0 01.45-1.42c.61-.29 1 .13 1.38.54l.78-.37a1.34 1.34 0 00-.61-.46l.25-.49c.35.14.644.389.84.71l.42-.2.18.36-.42.2a1 1 0 01-.41 1.38c-.6.28-1-.13-1.34-.54l-.87.42c.186.27.457.471.77.57l-.27.49a1.79 1.79 0 01-1-.83l-.38.19zm2.86-.86a.44.44 0 00.17-.59l-.7.33c.18.21.36.34.53.26zm-2-.55a.49.49 0 00-.19.63l.78-.37c-.16-.2-.31-.36-.56-.26h-.03z" fill="#50AA4B"/><path d="M1072.91 174.7l5.79 12-6.28 3-5.79-12 6.28-3zm4.92 11.73l-5.22-10.86-5.11 2.45 5.22 10.86 5.11-2.45z" fill="#50AA4B"/></g><g opacity=".65"><path fill="#55CB52" d="M936.538 124.356l13.948 5.154-2.894 7.832-13.948-5.154z"/><path d="M942.64 128.79l.37.14-.15.42a1 1 0 01.66 1.33c-.24.63-.83.62-1.37.57l-.3.81c.257.04.52.008.76-.09l.16.52a1.71 1.71 0 01-1.1.08l-.16.44-.38-.14.16-.44a1 1 0 01-.66-1.27c.23-.62.8-.6 1.33-.55l.34-.91a1.47 1.47 0 00-.95.13l-.15-.53a1.72 1.72 0 011.28-.09l.16-.42zm-1.46 2.61c-.08.21 0 .42.29.55l.27-.74c-.27-.02-.49.01-.56.19zm1.8-1a.5.5 0 00-.3-.59l-.3.81c.28.05.52.02.62-.19l-.02-.03z" fill="#50AA4B"/><path d="M947.13 136.39l-12.53-4.63 2.42-6.54 12.53 4.63-2.42 6.54zm-11.69-5l11.31 4.18 2-5.31-11.31-4.18-2 5.31z" fill="#50AA4B"/></g><path fill="#55CB52" d="M913.274 193.064l-9.725-15.643 8.78-5.46 9.727 15.643z"/><path d="M914.72 181.58a2.11 2.11 0 01.22 1.57l-.69-.05a1.78 1.78 0 00-.08-1.17l-1 .63c.2.63.36 1.32-.33 1.75a1.27 1.27 0 01-1.71-.48l-.49.3-.26-.42.49-.31a2 2 0 01-.18-1.35l.68.07a1.63 1.63 0 00.07.93l.9-.56c-.19-.64-.35-1.36.35-1.8a1.28 1.28 0 011.79.47l.47-.29.26.42-.49.29zm-2.25 1.4l-.82.51a.56.56 0 00.74.22c.2-.13.18-.4.08-.73zm.53-.91l.91-.57a.61.61 0 00-.79-.22c-.23.15-.21.44-.12.79z" fill="#50AA4B"/><path d="M912.18 173.17l8.74 14-7.33 4.55-8.74-14.05 7.33-4.5zm7.63 13.76l-7.89-12.68-5.95 3.7 7.88 12.68 5.96-3.7z" fill="#50AA4B"/><path fill="#55CB52" d="M887.513 154.557l-17.933-4.206 2.36-10.067 17.934 4.206z"/><path d="M880.43 145.41a2.16 2.16 0 011.26 1l-.52.45a1.85 1.85 0 00-.89-.77l-.28 1.17c.59.3 1.2.68 1 1.47a1.27 1.27 0 01-1.55.86l-.14.57-.48-.12.13-.57a2.06 2.06 0 01-1.08-.82l.52-.43c.177.264.422.475.71.61l.25-1c-.59-.32-1.21-.71-1-1.52a1.27 1.27 0 011.59-.93l.13-.54.48.11-.13.46zm-.61 2.58l-.22.94a.54.54 0 00.67-.36c.06-.24-.15-.42-.45-.58zm-.27-1l.25-1c-.44 0-.66.17-.72.4-.06.23.16.4.47.54v.06z" fill="#50AA4B"/><path d="M872.69 141.25l16.1 3.78-2 8.4-16.1-3.78 2-8.4zm15.13 4.38l-14.53-3.41-1.6 6.83 14.53 3.41 1.6-6.83z" fill="#50AA4B"/><g opacity=".74"><path fill="#55CB52" d="M666.877 97.716l3.601-9.831L676 89.907l-3.602 9.831z"/><path d="M672.51 94.34a1.18 1.18 0 01-.62.64l-.22-.32a1.06 1.06 0 00.5-.45l-.64-.23c-.21.31-.47.62-.9.46a.72.72 0 01-.39-.93l-.3-.12.09-.26.32.11c.109-.242.3-.437.54-.55l.2.32a1 1 0 00-.39.36l.57.21c.22-.31.48-.63.93-.47a.72.72 0 01.41 1l.3.11-.1.27-.3-.15zm-1.41-.52l-.51-.19a.31.31 0 00.16.41c.13.04.25-.06.35-.22zm.59-.08l.58.21c0-.25 0-.39-.18-.43-.18-.04-.27.05-.4.22z" fill="#50AA4B"/><path d="M675.39 90.25l-3.23 8.84-4.61-1.69 3.24-8.83 4.6 1.68zm-3.5 8.25l2.92-8-3.75-1.37-2.92 8 3.75 1.37z" fill="#50AA4B"/></g><g opacity=".69"><path fill="#55CB52" d="M750.853 78.97l-6.548-4.33 2.433-3.678 6.547 4.33z"/><path d="M749.34 74.3c.19.135.32.34.36.57l-.27.1a.8.8 0 00-.25-.44l-.28.43c.19.2.38.45.19.73a.54.54 0 01-.75.12l-.14.21-.2-.09.13-.21a.9.9 0 01-.31-.49l.27-.09a.73.73 0 00.2.35l.25-.38c-.19-.22-.38-.47-.18-.76a.53.53 0 01.77-.14l.13-.2.18.12-.1.17zm-.62.94l-.23.34a.24.24 0 00.32 0c.06-.13 0-.23-.09-.34zm0-.45l.25-.38c-.17-.07-.29 0-.35.06s.04.21.14.32h-.04z" fill="#50AA4B"/><path d="M746.86 71.49l5.88 3.89-2 3.07-5.88-3.89 2-3.07zm5.4 4L747 71.93l-1.65 2.49 5.31 3.51 1.6-2.44z" fill="#50AA4B"/></g><g opacity=".69"><path fill="#55CB52" d="M662.98 134.312l7.348-2.765 1.553 4.128-7.347 2.764z"/><path d="M667.66 135.87a.89.89 0 01-.67 0l.08-.29a.73.73 0 00.5.07l-.18-.48c-.28 0-.59 0-.71-.28a.55.55 0 01.35-.68l-.09-.23.2-.07.08.23a.91.91 0 01.59 0l-.09.27a.79.79 0 00-.4 0l.16.43c.29 0 .6 0 .73.3a.54.54 0 01-.35.7l.09.23-.2.07-.09-.27zm-.39-1.06l-.15-.38a.24.24 0 00-.15.29c.03.09.15.11.3.09zm.33.3l.16.43c.17-.1.2-.22.16-.31-.04-.09-.16-.13-.32-.12z" fill="#50AA4B"/><path d="M671.39 135.51l-6.6 2.48-1.29-3.44 6.6-2.49 1.29 3.45zm-6.4 2l6-2.24-1.05-2.8-6 2.24 1.05 2.8z" fill="#50AA4B"/></g><g opacity=".9"><path fill="#55CB52" d="M495.992 175.181l20.44-3.398 1.908 11.482-20.44 3.398z"/><path d="M507.33 181.59a2.42 2.42 0 01-1.73-.45l.35-.69c.364.272.806.42 1.26.42l-.23-1.33c-.73-.06-1.53-.19-1.68-1.1a1.44 1.44 0 011.24-1.57l-.1-.64.55-.09.1.65a2.32 2.32 0 011.49.39l-.36.67a1.92 1.92 0 00-1-.33l.19 1.19c.75.07 1.57.21 1.72 1.14a1.42 1.42 0 01-1.25 1.65l.1.62-.55.09-.1-.62zm-.49-2.94l-.18-1.07c-.39.11-.59.37-.54.67.05.3.34.36.72.4zm.72.94l.2 1.19c.46-.15.61-.46.56-.72-.05-.26-.32-.42-.76-.47z" fill="#50AA4B"/><path d="M517.17 182.56l-18.36 3.05-1.6-9.57 18.36-3.05 1.6 9.57zm-17.62 2l16.57-2.76-1.29-7.78-16.57 2.76 1.29 7.78z" fill="#50AA4B"/></g><g opacity=".84"><path fill="#55CB52" d="M760.798 177.278l-3.707-26.856 15.077-2.08 3.707 26.854z"/><path d="M762.68 163.66l-.1-.72.81-.11a1.87 1.87 0 011.58-2.21c1.21-.17 1.71.79 2.09 1.7l1.56-.22a2.53 2.53 0 00-.8-1.12l.7-.72a3.06 3.06 0 011.06 1.71l.86-.12.1.73-.85.11a1.87 1.87 0 01-1.48 2.16c-1.18.17-1.65-.77-2-1.67l-1.75.24a2.69 2.69 0 001 1.41l-.73.7a3.15 3.15 0 01-1.24-2l-.81.13zm5.45.1c.4-.06.65-.41.63-.94l-1.41.2c.2.46.43.79.78.74zm-3.13-2.05c-.34 0-.67.35-.68 1l1.56-.22c-.2-.49-.45-.84-.88-.78z" fill="#50AA4B"/><path d="M771 149.93l3.33 24.12-12.58 1.74-3.33-24.12 12.58-1.74zm2 23.11l-3-21.77-10.23 1.41 3 21.77 10.23-1.41z" fill="#50AA4B"/></g><g opacity=".94"><path fill="#55CB52" d="M615.74 159.659l15.783-19.065 10.707 8.864-15.783 19.065z"/><path d="M626 152.48l.43-.52.57.48a1.72 1.72 0 012.46-.3c.86.71.52 1.64.15 2.46l1.1.91a2.16 2.16 0 00.26-1.23h.92a2.86 2.86 0 01-.49 1.77l.6.5-.42.51-.6-.49a1.72 1.72 0 01-2.37.34c-.84-.7-.5-1.6-.12-2.4l-1.24-1a2.44 2.44 0 00-.32 1.55l-.92-.06a2.83 2.83 0 01.57-2.05l-.58-.47zm3.3 3.73a.74.74 0 001-.16l-1-.83c-.14.42-.22.78.03.99h-.03zm-.54-3.36c-.24-.21-.65-.24-1.09.15l1.11.92c.22-.45.3-.83.01-1.07h-.03z" fill="#50AA4B"/><path d="M640.44 149.61l-14.17 17.12-8.93-7.39 14.17-17.12 8.93 7.39zm-14.32 15.59l12.79-15.45-7.25-6-12.79 15.45 7.25 6z" fill="#50AA4B"/></g><path fill="#55CB52" d="M675.743 199.62l-24.284-11.052 6.205-13.634 24.284 11.051z"/><path d="M668.26 184.63a3 3 0 011.52 1.72l-.87.49a2.58 2.58 0 00-1-1.35l-.72 1.58c.75.6 1.5 1.3 1 2.38a1.85 1.85 0 01-2.45.79l-.35.76-.65-.3.35-.77a3 3 0 01-1.31-1.49l.87-.46a2.3 2.3 0 00.84 1.07l.64-1.4c-.75-.62-1.52-1.36-1-2.45a1.85 1.85 0 012.53-.87l.33-.73.66.29-.39.74zm-1.59 3.49l-.58 1.27a.79.79 0 001.06-.33c.15-.31-.1-.62-.48-.94zm-.1-1.52l.65-1.42c-.61-.16-1 .06-1.13.37-.13.31.1.71.48 1.05z" fill="#50AA4B"/><path d="M658.44 176.53l21.82 9.92-5.18 11.37-21.81-9.89 5.17-11.4zm20.27 10.5l-19.69-9-4.2 9.25 19.68 9 4.21-9.25z" fill="#50AA4B"/><path fill="#55CB52" d="M834.314 148.518l-27.502-10.048 5.642-15.442 27.502 10.048z"/><path d="M824.89 132.69a3.32 3.32 0 011.8 1.75l-.9.62a2.89 2.89 0 00-1.26-1.4l-.65 1.79c.86.59 1.75 1.3 1.31 2.52a2 2 0 01-2.62 1.07l-.32.86-.74-.27.32-.87a3.34 3.34 0 01-1.56-1.52l.92-.58a2.54 2.54 0 001 1.1l.58-1.59c-.87-.61-1.77-1.35-1.32-2.59a2 2 0 012.7-1.16l.3-.84.74.27-.3.84zm-1.45 4l-.52 1.44a.87.87 0 001.13-.45c.13-.41-.17-.75-.61-1.04v.05zm-.23-1.66l.58-1.6a1 1 0 00-1.2.5c-.15.36.17.71.62 1.05v.05z" fill="#50AA4B"/><path d="M813.46 124.64l24.71 9-4.71 12.88-24.7-9 4.7-12.88zm23.06 9.8l-22.29-8.15-3.83 10.47 22.29 8.17 3.83-10.49z" fill="#50AA4B"/><path fill="#55CB52" d="M724.312 182.511l-27.502-10.048 5.641-15.441 27.502 10.048z"/><path d="M714.89 166.69a3.32 3.32 0 011.8 1.75l-.9.62a2.89 2.89 0 00-1.26-1.4l-.65 1.79c.86.59 1.75 1.3 1.31 2.52a2 2 0 01-2.62 1.07l-.32.86-.74-.27.32-.87a3.34 3.34 0 01-1.56-1.52l.92-.58a2.54 2.54 0 001 1.1l.58-1.59c-.87-.61-1.77-1.35-1.32-2.59a2 2 0 012.7-1.16l.3-.84.74.27-.3.84zm-1.45 4l-.52 1.44a.87.87 0 001.13-.45c.13-.41-.17-.75-.61-1.04v.05zm-.23-1.66l.58-1.6a1 1 0 00-1.2.5c-.15.36.17.71.62 1.05v.05z" fill="#50AA4B"/><path d="M703.46 158.64l24.71 9-4.71 12.88-24.7-9 4.7-12.88zm23.06 9.8l-22.29-8.15-3.83 10.47 22.29 8.17 3.83-10.49z" fill="#50AA4B"/><g opacity=".84"><path fill="#55CB52" d="M795.475 84.054l13.942-2.295 1.288 7.824-13.942 2.296z"/><path d="M803.19 88.39a1.63 1.63 0 01-1.18-.31l.24-.47c.246.19.55.29.86.28l-.15-.9c-.51 0-1.05-.13-1.15-.75a1 1 0 01.85-1.07l-.08-.44.38-.06.07.44a1.66 1.66 0 011 .27l-.25.46a1.25 1.25 0 00-.68-.22l.13.8c.51.05 1.07.15 1.17.78a1 1 0 01-.86 1.13l.07.42-.37.06-.05-.42zm-.33-2l-.12-.74c-.27.08-.41.25-.37.46.04.21.23.25.49.28zm.49.63l.13.82c.32-.11.42-.32.39-.5-.03-.18-.25-.28-.52-.32z" fill="#50AA4B"/><path d="M809.89 89.06l-12.52 2.06-1.07-6.53 12.52-2.06 1.07 6.53zm-12 1.35l11.3-1.86-.87-5.31L797 85.1l.89 5.31z" fill="#50AA4B"/></g><g opacity=".84"><path fill="#55CB52" d="M713.711 96.453l10.689 9.243-5.187 5.998-10.689-9.242z"/><path d="M715.24 105.22a1.65 1.65 0 01-.52-1.1l.52-.13c.01.313.127.612.33.85l.6-.7c-.29-.41-.57-.88-.16-1.36a1 1 0 011.36 0l.29-.34.29.25-.29.34c.257.273.413.626.44 1l-.51.11a1.28 1.28 0 00-.26-.67l-.54.62c.29.42.57.91.15 1.39a1 1 0 01-1.41.06l-.28.33-.29-.25.28-.4zm1.33-1.54l.48-.56a.41.41 0 00-.58 0c-.13.15-.05.34.1.56zm-.18.79l-.54.62a.46.46 0 00.63 0c.14-.16.06-.39-.09-.62z" fill="#50AA4B"/><path d="M719 110.8l-9.6-8.3 4.33-5 9.6 8.3-4.33 5zm-8.73-8.36l8.73 7.49 3.52-4.07-8.66-7.49-3.59 4.07z" fill="#50AA4B"/></g><g opacity=".88"><path fill="#55CB52" d="M701.776 130.214l22.679-3.176 1.783 12.736-22.679 3.175z"/><path d="M714.11 137.57a2.62 2.62 0 01-1.89-.54l.4-.76a2.25 2.25 0 001.38.5l-.21-1.48c-.81-.08-1.68-.25-1.82-1.25a1.58 1.58 0 011.41-1.7l-.1-.71.61-.09.1.72a2.55 2.55 0 011.63.47l-.42.74a2 2 0 00-1.09-.39l.18 1.31c.82.1 1.72.28 1.87 1.31a1.59 1.59 0 01-1.44 1.79l.1.68-.61.09-.1-.69zm-.45-3.25l-.17-1.2c-.43.11-.66.39-.62.73.04.34.36.41.79.47zm.77 1.05l.18 1.32c.52-.16.69-.49.65-.78-.04-.29-.39-.47-.83-.54z" fill="#50AA4B"/><path d="M725 138.93l-20.36 2.85-1.49-10.62 20.37-2.85 1.48 10.62zm-19.51 1.72l18.38-2.57-1.21-8.64-18.38 2.58 1.21 8.63z" fill="#50AA4B"/></g><path fill="#55CB52" d="M765.02 109.41l18.842-12.337 6.924 10.576-18.841 12.337z"/><path d="M775.59 110.73a2.59 2.59 0 01-1.9.31v-.84a2.2 2.2 0 001.43-.13l-.8-1.22c-.76.26-1.6.48-2.14-.35a1.56 1.56 0 01.54-2.1l-.39-.58.51-.34.39.6a2.52 2.52 0 011.64-.27l-.06.83a2 2 0 00-1.14.11l.71 1.09c.78-.26 1.65-.47 2.2.37a1.55 1.55 0 01-.51 2.19l.37.57-.51.33-.34-.57zm-1.77-2.69l-.65-1a.68.68 0 00-.24.9c.17.26.49.22.89.1zm1.13.61l.71 1.09c.39-.36.4-.72.25-1-.15-.28-.55-.21-.91-.09h-.05z" fill="#50AA4B"/><path d="M785.75 107.38l-16.83 11.06-5.77-8.77L780 98.6l5.75 8.78zm-16.55 9.7l15.19-10-4.69-7.15-15.19 10 4.69 7.15z" fill="#50AA4B"/><g opacity=".86"><path fill="#55CB52" d="M974.235 175.837l-18.415 3.529-1.982-10.342 18.415-3.53z"/><path d="M963.85 170.33a2.13 2.13 0 011.57.36l-.3.64a1.79 1.79 0 00-1.15-.35l.23 1.2c.67 0 1.39.13 1.55.95a1.3 1.3 0 01-1.09 1.45l.11.57-.49.1-.12-.58a2.11 2.11 0 01-1.35-.32l.31-.62a1.7 1.7 0 00.92.27l-.21-1.06c-.68-.06-1.42-.16-1.58-1a1.29 1.29 0 011.1-1.52l-.11-.56.5-.09.11.56zm.5 2.64l.19 1c.35-.11.52-.35.47-.62-.05-.27-.31-.35-.66-.42v.04zm-.67-.83l-.21-1.07c-.41.15-.54.43-.49.66.05.23.34.37.7.41z" fill="#50AA4B"/><path d="M954.92 169.67l16.54-3.17 1.66 8.62-16.54 3.17-1.66-8.62zm15.89-2.21l-14.92 2.86 1.34 7 14.93-2.86-1.35-7z" fill="#50AA4B"/></g><g opacity=".78"><path fill="#55CB52" d="M448.3 202.725l-16.452 2.562-1.439-9.24 16.452-2.56z"/><path d="M439.26 197.48a1.94 1.94 0 011.38.38l-.28.55a1.66 1.66 0 00-1-.35l.17 1.07c.59.06 1.23.17 1.34.9a1.15 1.15 0 01-1 1.25l.08.52-.44.06-.08-.52a1.89 1.89 0 01-1.19-.32l.29-.54c.235.166.513.26.8.27l-.14-.95c-.6-.07-1.26-.19-1.37-.93a1.15 1.15 0 011-1.32l-.08-.5.44-.07.08.5zm.37 2.36l.13.87c.31-.08.48-.29.44-.54-.04-.25-.27-.24-.57-.33zm-.57-.75l-.15-1c-.38.12-.5.36-.46.57.04.21.29.38.61.43z" fill="#50AA4B"/><path d="M431.36 196.62l14.78-2.3 1.2 7.7-14.78 2.31-1.2-7.71zm14.17-1.47l-13.33 2.08 1 6.26 13.34-2.07-1.01-6.27z" fill="#50AA4B"/></g><path d="M386.74 122.02a8.54 8.54 0 00-1.91.22 12.84 12.84 0 00-19-.45 10.36 10.36 0 00-5.42-1.53c-5.957.104-10.727 4.972-10.71 10.93v.5h46.06v-.53a9.13 9.13 0 00-9.02-9.14zm293.13-80.66a22.43 22.43 0 00-5 .57 33.73 33.73 0 00-49.94-1.18 27.41 27.41 0 00-14.25-4c-15.52 0-28.11 13.18-28.11 28.7v1.31h120.9v-1.39c.01-13.05-10.56-24.01-23.6-24.01zm445.87 13.95c-.76 0-1.52.087-2.26.26a15.24 15.24 0 00-22.57-.53 12.41 12.41 0 00-6.44-1.82c-7.076.131-12.734 5.923-12.7 13v.59h54.63v-.63c.023-5.931-4.73-10.777-10.66-10.87z" fill="#00A4E5" opacity=".28"/></g></g></svg>